<mxfile host="app.diagrams.net" agent="Mozilla/5.0 (Windows NT 10.0; Win64; x64) AppleWebKit/537.36 (KHTML, like Gecko) Chrome/138.0.0.0 Safari/537.36" version="27.0.6">
  <diagram name="PÃ¡gina-1" id="7BNNZKbipzEPIhbUupkw">
    <mxGraphModel dx="2051" dy="1136" grid="1" gridSize="10" guides="1" tooltips="1" connect="1" arrows="1" fold="1" page="1" pageScale="1" pageWidth="827" pageHeight="1169" math="0" shadow="0">
      <root>
        <mxCell id="0" />
        <mxCell id="1" parent="0" />
        <mxCell id="grplmEt5WtFM2ZvYx5RY-1" value="aluno" style="whiteSpace=wrap;html=1;align=center;" vertex="1" parent="1">
          <mxGeometry x="40" y="160" width="100" height="40" as="geometry" />
        </mxCell>
        <mxCell id="grplmEt5WtFM2ZvYx5RY-2" value="matricula" style="ellipse;whiteSpace=wrap;html=1;align=center;fontStyle=4;" vertex="1" parent="1">
          <mxGeometry x="-110" y="60" width="100" height="40" as="geometry" />
        </mxCell>
        <mxCell id="grplmEt5WtFM2ZvYx5RY-5" value="nome" style="ellipse;whiteSpace=wrap;html=1;align=center;" vertex="1" parent="1">
          <mxGeometry x="10" y="40" width="100" height="40" as="geometry" />
        </mxCell>
        <mxCell id="grplmEt5WtFM2ZvYx5RY-6" value="endereco" style="ellipse;whiteSpace=wrap;html=1;align=center;" vertex="1" parent="1">
          <mxGeometry x="130" y="50" width="100" height="40" as="geometry" />
        </mxCell>
        <mxCell id="grplmEt5WtFM2ZvYx5RY-7" value="telefone" style="ellipse;whiteSpace=wrap;html=1;align=center;" vertex="1" parent="1">
          <mxGeometry x="240" y="80" width="100" height="40" as="geometry" />
        </mxCell>
        <mxCell id="grplmEt5WtFM2ZvYx5RY-8" value="" style="endArrow=none;html=1;rounded=0;exitX=0.62;exitY=0.975;exitDx=0;exitDy=0;exitPerimeter=0;entryX=0.25;entryY=0;entryDx=0;entryDy=0;" edge="1" parent="1" source="grplmEt5WtFM2ZvYx5RY-2" target="grplmEt5WtFM2ZvYx5RY-1">
          <mxGeometry relative="1" as="geometry">
            <mxPoint x="330" y="380" as="sourcePoint" />
            <mxPoint x="490" y="380" as="targetPoint" />
          </mxGeometry>
        </mxCell>
        <mxCell id="grplmEt5WtFM2ZvYx5RY-9" value="" style="endArrow=none;html=1;rounded=0;exitX=0.23;exitY=0.9;exitDx=0;exitDy=0;exitPerimeter=0;entryX=0.5;entryY=0;entryDx=0;entryDy=0;" edge="1" parent="1" source="grplmEt5WtFM2ZvYx5RY-5" target="grplmEt5WtFM2ZvYx5RY-1">
          <mxGeometry relative="1" as="geometry">
            <mxPoint x="330" y="380" as="sourcePoint" />
            <mxPoint x="490" y="380" as="targetPoint" />
          </mxGeometry>
        </mxCell>
        <mxCell id="grplmEt5WtFM2ZvYx5RY-13" value="" style="endArrow=none;html=1;rounded=0;exitX=0.04;exitY=0.775;exitDx=0;exitDy=0;exitPerimeter=0;" edge="1" parent="1" source="grplmEt5WtFM2ZvYx5RY-6" target="grplmEt5WtFM2ZvYx5RY-1">
          <mxGeometry relative="1" as="geometry">
            <mxPoint x="330" y="380" as="sourcePoint" />
            <mxPoint x="490" y="380" as="targetPoint" />
          </mxGeometry>
        </mxCell>
        <mxCell id="grplmEt5WtFM2ZvYx5RY-14" value="" style="endArrow=none;html=1;rounded=0;exitX=0.01;exitY=0.675;exitDx=0;exitDy=0;exitPerimeter=0;entryX=1;entryY=0;entryDx=0;entryDy=0;" edge="1" parent="1" source="grplmEt5WtFM2ZvYx5RY-7" target="grplmEt5WtFM2ZvYx5RY-1">
          <mxGeometry relative="1" as="geometry">
            <mxPoint x="330" y="380" as="sourcePoint" />
            <mxPoint x="490" y="380" as="targetPoint" />
          </mxGeometry>
        </mxCell>
        <mxCell id="grplmEt5WtFM2ZvYx5RY-15" value="escola" style="whiteSpace=wrap;html=1;align=center;" vertex="1" parent="1">
          <mxGeometry x="30" y="560" width="100" height="40" as="geometry" />
        </mxCell>
        <mxCell id="grplmEt5WtFM2ZvYx5RY-16" value="cnpj" style="ellipse;whiteSpace=wrap;html=1;align=center;fontStyle=4;" vertex="1" parent="1">
          <mxGeometry x="-70" y="480" width="100" height="40" as="geometry" />
        </mxCell>
        <mxCell id="grplmEt5WtFM2ZvYx5RY-17" value="nome" style="ellipse;whiteSpace=wrap;html=1;align=center;" vertex="1" parent="1">
          <mxGeometry x="-110" y="550" width="100" height="50" as="geometry" />
        </mxCell>
        <mxCell id="grplmEt5WtFM2ZvYx5RY-18" value="endereco" style="ellipse;whiteSpace=wrap;html=1;align=center;" vertex="1" parent="1">
          <mxGeometry x="40" y="670" width="100" height="40" as="geometry" />
        </mxCell>
        <mxCell id="grplmEt5WtFM2ZvYx5RY-19" value="telefone" style="ellipse;whiteSpace=wrap;html=1;align=center;" vertex="1" parent="1">
          <mxGeometry x="-70" y="630" width="100" height="40" as="geometry" />
        </mxCell>
        <mxCell id="grplmEt5WtFM2ZvYx5RY-21" value="" style="endArrow=none;html=1;rounded=0;exitX=0.5;exitY=1;exitDx=0;exitDy=0;entryX=0.25;entryY=0;entryDx=0;entryDy=0;" edge="1" parent="1" source="grplmEt5WtFM2ZvYx5RY-16" target="grplmEt5WtFM2ZvYx5RY-15">
          <mxGeometry relative="1" as="geometry">
            <mxPoint x="330" y="600" as="sourcePoint" />
            <mxPoint x="490" y="600" as="targetPoint" />
          </mxGeometry>
        </mxCell>
        <mxCell id="grplmEt5WtFM2ZvYx5RY-22" value="" style="endArrow=none;html=1;rounded=0;entryX=0;entryY=0.5;entryDx=0;entryDy=0;" edge="1" parent="1" target="grplmEt5WtFM2ZvYx5RY-15">
          <mxGeometry relative="1" as="geometry">
            <mxPoint x="-10" y="580" as="sourcePoint" />
            <mxPoint x="490" y="600" as="targetPoint" />
          </mxGeometry>
        </mxCell>
        <mxCell id="grplmEt5WtFM2ZvYx5RY-23" value="" style="endArrow=none;html=1;rounded=0;entryX=1;entryY=1;entryDx=0;entryDy=0;entryPerimeter=0;" edge="1" parent="1" source="grplmEt5WtFM2ZvYx5RY-18" target="grplmEt5WtFM2ZvYx5RY-15">
          <mxGeometry relative="1" as="geometry">
            <mxPoint x="330" y="600" as="sourcePoint" />
            <mxPoint x="490" y="600" as="targetPoint" />
          </mxGeometry>
        </mxCell>
        <mxCell id="grplmEt5WtFM2ZvYx5RY-24" value="" style="endArrow=none;html=1;rounded=0;exitX=0.94;exitY=0.65;exitDx=0;exitDy=0;entryX=0.75;entryY=1;entryDx=0;entryDy=0;exitPerimeter=0;" edge="1" parent="1" source="grplmEt5WtFM2ZvYx5RY-19" target="grplmEt5WtFM2ZvYx5RY-15">
          <mxGeometry relative="1" as="geometry">
            <mxPoint x="330" y="600" as="sourcePoint" />
            <mxPoint x="490" y="600" as="targetPoint" />
          </mxGeometry>
        </mxCell>
        <mxCell id="grplmEt5WtFM2ZvYx5RY-25" value="turma" style="whiteSpace=wrap;html=1;align=center;" vertex="1" parent="1">
          <mxGeometry x="500" y="350" width="100" height="40" as="geometry" />
        </mxCell>
        <mxCell id="grplmEt5WtFM2ZvYx5RY-26" value="codigo" style="ellipse;whiteSpace=wrap;html=1;align=center;fontStyle=4;" vertex="1" parent="1">
          <mxGeometry x="480" y="270" width="100" height="40" as="geometry" />
        </mxCell>
        <mxCell id="grplmEt5WtFM2ZvYx5RY-27" value="sala" style="ellipse;whiteSpace=wrap;html=1;align=center;" vertex="1" parent="1">
          <mxGeometry x="360" y="280" width="100" height="40" as="geometry" />
        </mxCell>
        <mxCell id="grplmEt5WtFM2ZvYx5RY-28" value="turno" style="ellipse;whiteSpace=wrap;html=1;align=center;" vertex="1" parent="1">
          <mxGeometry x="350" y="360" width="100" height="40" as="geometry" />
        </mxCell>
        <mxCell id="grplmEt5WtFM2ZvYx5RY-29" value="" style="endArrow=none;html=1;rounded=0;entryX=0;entryY=0.5;entryDx=0;entryDy=0;exitX=1;exitY=0.5;exitDx=0;exitDy=0;" edge="1" parent="1" source="grplmEt5WtFM2ZvYx5RY-28" target="grplmEt5WtFM2ZvYx5RY-25">
          <mxGeometry relative="1" as="geometry">
            <mxPoint x="470" y="380" as="sourcePoint" />
            <mxPoint x="300" y="380" as="targetPoint" />
          </mxGeometry>
        </mxCell>
        <mxCell id="grplmEt5WtFM2ZvYx5RY-30" value="" style="endArrow=none;html=1;rounded=0;entryX=0.5;entryY=0;entryDx=0;entryDy=0;exitX=0.5;exitY=1;exitDx=0;exitDy=0;" edge="1" parent="1" source="grplmEt5WtFM2ZvYx5RY-26" target="grplmEt5WtFM2ZvYx5RY-25">
          <mxGeometry relative="1" as="geometry">
            <mxPoint x="140" y="380" as="sourcePoint" />
            <mxPoint x="300" y="380" as="targetPoint" />
          </mxGeometry>
        </mxCell>
        <mxCell id="grplmEt5WtFM2ZvYx5RY-31" value="" style="endArrow=none;html=1;rounded=0;entryX=0.5;entryY=1;entryDx=0;entryDy=0;exitX=0.07;exitY=0.05;exitDx=0;exitDy=0;exitPerimeter=0;" edge="1" parent="1" source="grplmEt5WtFM2ZvYx5RY-25" target="grplmEt5WtFM2ZvYx5RY-27">
          <mxGeometry relative="1" as="geometry">
            <mxPoint x="140" y="380" as="sourcePoint" />
            <mxPoint x="300" y="380" as="targetPoint" />
          </mxGeometry>
        </mxCell>
        <mxCell id="grplmEt5WtFM2ZvYx5RY-32" value="disciplina" style="whiteSpace=wrap;html=1;align=center;" vertex="1" parent="1">
          <mxGeometry x="780" y="370" width="100" height="40" as="geometry" />
        </mxCell>
        <mxCell id="grplmEt5WtFM2ZvYx5RY-33" value="professor" style="whiteSpace=wrap;html=1;align=center;" vertex="1" parent="1">
          <mxGeometry x="560" y="670" width="100" height="40" as="geometry" />
        </mxCell>
        <mxCell id="grplmEt5WtFM2ZvYx5RY-34" value="cpf" style="ellipse;whiteSpace=wrap;html=1;align=center;fontStyle=4;" vertex="1" parent="1">
          <mxGeometry x="500" y="760" width="100" height="40" as="geometry" />
        </mxCell>
        <mxCell id="grplmEt5WtFM2ZvYx5RY-35" value="nome" style="ellipse;whiteSpace=wrap;html=1;align=center;" vertex="1" parent="1">
          <mxGeometry x="640" y="740" width="100" height="40" as="geometry" />
        </mxCell>
        <mxCell id="grplmEt5WtFM2ZvYx5RY-36" value="endereco" style="ellipse;whiteSpace=wrap;html=1;align=center;" vertex="1" parent="1">
          <mxGeometry x="740" y="700" width="100" height="40" as="geometry" />
        </mxCell>
        <mxCell id="grplmEt5WtFM2ZvYx5RY-37" value="" style="endArrow=none;html=1;rounded=0;entryX=0.5;entryY=0;entryDx=0;entryDy=0;exitX=0.5;exitY=1;exitDx=0;exitDy=0;" edge="1" parent="1" source="grplmEt5WtFM2ZvYx5RY-33" target="grplmEt5WtFM2ZvYx5RY-34">
          <mxGeometry relative="1" as="geometry">
            <mxPoint x="540" y="710" as="sourcePoint" />
            <mxPoint x="450" y="440" as="targetPoint" />
          </mxGeometry>
        </mxCell>
        <mxCell id="grplmEt5WtFM2ZvYx5RY-38" value="" style="endArrow=none;html=1;rounded=0;entryX=0.5;entryY=0;entryDx=0;entryDy=0;exitX=0.75;exitY=1;exitDx=0;exitDy=0;" edge="1" parent="1" source="grplmEt5WtFM2ZvYx5RY-33" target="grplmEt5WtFM2ZvYx5RY-35">
          <mxGeometry relative="1" as="geometry">
            <mxPoint x="710" y="690" as="sourcePoint" />
            <mxPoint x="710" y="650" as="targetPoint" />
          </mxGeometry>
        </mxCell>
        <mxCell id="grplmEt5WtFM2ZvYx5RY-39" value="" style="endArrow=none;html=1;rounded=0;entryX=1;entryY=0.75;entryDx=0;entryDy=0;exitX=0;exitY=0.5;exitDx=0;exitDy=0;" edge="1" parent="1" source="grplmEt5WtFM2ZvYx5RY-36" target="grplmEt5WtFM2ZvYx5RY-33">
          <mxGeometry relative="1" as="geometry">
            <mxPoint x="700" y="760" as="sourcePoint" />
            <mxPoint x="490" y="770" as="targetPoint" />
          </mxGeometry>
        </mxCell>
        <mxCell id="grplmEt5WtFM2ZvYx5RY-40" value="telefone" style="ellipse;whiteSpace=wrap;html=1;align=center;" vertex="1" parent="1">
          <mxGeometry x="730" y="650" width="100" height="40" as="geometry" />
        </mxCell>
        <mxCell id="grplmEt5WtFM2ZvYx5RY-41" value="" style="endArrow=none;html=1;rounded=0;exitX=0;exitY=0.5;exitDx=0;exitDy=0;entryX=1;entryY=0.5;entryDx=0;entryDy=0;" edge="1" parent="1" source="grplmEt5WtFM2ZvYx5RY-40" target="grplmEt5WtFM2ZvYx5RY-33">
          <mxGeometry relative="1" as="geometry">
            <mxPoint x="710" y="700" as="sourcePoint" />
            <mxPoint x="700" y="640" as="targetPoint" />
          </mxGeometry>
        </mxCell>
        <mxCell id="grplmEt5WtFM2ZvYx5RY-42" value="codigo" style="ellipse;whiteSpace=wrap;html=1;align=center;fontStyle=4;" vertex="1" parent="1">
          <mxGeometry x="890" y="280" width="100" height="40" as="geometry" />
        </mxCell>
        <mxCell id="grplmEt5WtFM2ZvYx5RY-43" value="ementa" style="ellipse;whiteSpace=wrap;html=1;align=center;" vertex="1" parent="1">
          <mxGeometry x="920" y="350" width="100" height="40" as="geometry" />
        </mxCell>
        <mxCell id="grplmEt5WtFM2ZvYx5RY-44" value="carga_horaria" style="ellipse;whiteSpace=wrap;html=1;align=center;" vertex="1" parent="1">
          <mxGeometry x="910" y="440" width="100" height="40" as="geometry" />
        </mxCell>
        <mxCell id="grplmEt5WtFM2ZvYx5RY-45" value="nome" style="ellipse;whiteSpace=wrap;html=1;align=center;" vertex="1" parent="1">
          <mxGeometry x="880" y="520" width="100" height="40" as="geometry" />
        </mxCell>
        <mxCell id="grplmEt5WtFM2ZvYx5RY-46" value="" style="endArrow=none;html=1;rounded=0;entryX=0.5;entryY=1;entryDx=0;entryDy=0;exitX=0.5;exitY=0;exitDx=0;exitDy=0;" edge="1" parent="1" source="grplmEt5WtFM2ZvYx5RY-32" target="grplmEt5WtFM2ZvYx5RY-42">
          <mxGeometry relative="1" as="geometry">
            <mxPoint x="330" y="380" as="sourcePoint" />
            <mxPoint x="490" y="380" as="targetPoint" />
          </mxGeometry>
        </mxCell>
        <mxCell id="grplmEt5WtFM2ZvYx5RY-47" value="" style="endArrow=none;html=1;rounded=0;exitX=0;exitY=0.5;exitDx=0;exitDy=0;entryX=1;entryY=0.5;entryDx=0;entryDy=0;" edge="1" parent="1" source="grplmEt5WtFM2ZvYx5RY-43" target="grplmEt5WtFM2ZvYx5RY-32">
          <mxGeometry relative="1" as="geometry">
            <mxPoint x="930" y="350" as="sourcePoint" />
            <mxPoint x="950" y="280" as="targetPoint" />
          </mxGeometry>
        </mxCell>
        <mxCell id="grplmEt5WtFM2ZvYx5RY-48" value="" style="endArrow=none;html=1;rounded=0;entryX=0;entryY=0.5;entryDx=0;entryDy=0;exitX=0.75;exitY=1;exitDx=0;exitDy=0;" edge="1" parent="1" source="grplmEt5WtFM2ZvYx5RY-32" target="grplmEt5WtFM2ZvYx5RY-44">
          <mxGeometry relative="1" as="geometry">
            <mxPoint x="900" y="620" as="sourcePoint" />
            <mxPoint x="900" y="560" as="targetPoint" />
          </mxGeometry>
        </mxCell>
        <mxCell id="grplmEt5WtFM2ZvYx5RY-49" value="" style="endArrow=none;html=1;rounded=0;entryX=0.5;entryY=1;entryDx=0;entryDy=0;" edge="1" parent="1" source="grplmEt5WtFM2ZvYx5RY-45" target="grplmEt5WtFM2ZvYx5RY-32">
          <mxGeometry relative="1" as="geometry">
            <mxPoint x="680" y="510" as="sourcePoint" />
            <mxPoint x="680" y="450" as="targetPoint" />
          </mxGeometry>
        </mxCell>
        <mxCell id="grplmEt5WtFM2ZvYx5RY-50" value="estuda" style="shape=rhombus;perimeter=rhombusPerimeter;whiteSpace=wrap;html=1;align=center;" vertex="1" parent="1">
          <mxGeometry x="90" y="290" width="120" height="60" as="geometry" />
        </mxCell>
        <mxCell id="grplmEt5WtFM2ZvYx5RY-53" value="" style="edgeStyle=entityRelationEdgeStyle;fontSize=12;html=1;endArrow=baseDash;endFill=0;rounded=0;exitX=0.5;exitY=1;exitDx=0;exitDy=0;entryX=0.5;entryY=0;entryDx=0;entryDy=0;" edge="1" parent="1" source="grplmEt5WtFM2ZvYx5RY-50" target="grplmEt5WtFM2ZvYx5RY-15">
          <mxGeometry width="100" height="100" relative="1" as="geometry">
            <mxPoint x="360" y="430" as="sourcePoint" />
            <mxPoint x="460" y="330" as="targetPoint" />
          </mxGeometry>
        </mxCell>
        <mxCell id="grplmEt5WtFM2ZvYx5RY-54" value="" style="edgeStyle=entityRelationEdgeStyle;fontSize=12;html=1;endArrow=ERmany;rounded=0;exitX=0.5;exitY=0;exitDx=0;exitDy=0;entryX=0.5;entryY=1;entryDx=0;entryDy=0;" edge="1" parent="1" source="grplmEt5WtFM2ZvYx5RY-50" target="grplmEt5WtFM2ZvYx5RY-1">
          <mxGeometry width="100" height="100" relative="1" as="geometry">
            <mxPoint x="360" y="430" as="sourcePoint" />
            <mxPoint x="460" y="330" as="targetPoint" />
          </mxGeometry>
        </mxCell>
        <mxCell id="grplmEt5WtFM2ZvYx5RY-55" value="matricula" style="shape=rhombus;perimeter=rhombusPerimeter;whiteSpace=wrap;html=1;align=center;" vertex="1" parent="1">
          <mxGeometry x="440" y="140" width="120" height="60" as="geometry" />
        </mxCell>
        <mxCell id="grplmEt5WtFM2ZvYx5RY-56" value="" style="edgeStyle=entityRelationEdgeStyle;fontSize=12;html=1;endArrow=ERone;endFill=1;rounded=0;entryX=0.5;entryY=0;entryDx=0;entryDy=0;" edge="1" parent="1" source="grplmEt5WtFM2ZvYx5RY-55" target="grplmEt5WtFM2ZvYx5RY-25">
          <mxGeometry width="100" height="100" relative="1" as="geometry">
            <mxPoint x="360" y="430" as="sourcePoint" />
            <mxPoint x="570" y="330" as="targetPoint" />
          </mxGeometry>
        </mxCell>
        <mxCell id="grplmEt5WtFM2ZvYx5RY-57" value="" style="edgeStyle=entityRelationEdgeStyle;fontSize=12;html=1;endArrow=ERmany;rounded=0;exitX=0;exitY=0.5;exitDx=0;exitDy=0;entryX=1;entryY=0.5;entryDx=0;entryDy=0;" edge="1" parent="1" source="grplmEt5WtFM2ZvYx5RY-55" target="grplmEt5WtFM2ZvYx5RY-1">
          <mxGeometry width="100" height="100" relative="1" as="geometry">
            <mxPoint x="360" y="430" as="sourcePoint" />
            <mxPoint x="460" y="330" as="targetPoint" />
          </mxGeometry>
        </mxCell>
        <mxCell id="grplmEt5WtFM2ZvYx5RY-58" value="possui" style="shape=rhombus;perimeter=rhombusPerimeter;whiteSpace=wrap;html=1;align=center;" vertex="1" parent="1">
          <mxGeometry x="370" y="460" width="120" height="60" as="geometry" />
        </mxCell>
        <mxCell id="grplmEt5WtFM2ZvYx5RY-59" value="" style="edgeStyle=entityRelationEdgeStyle;fontSize=12;html=1;endArrow=ERmany;rounded=0;entryX=0.5;entryY=1;entryDx=0;entryDy=0;" edge="1" parent="1" source="grplmEt5WtFM2ZvYx5RY-58" target="grplmEt5WtFM2ZvYx5RY-25">
          <mxGeometry width="100" height="100" relative="1" as="geometry">
            <mxPoint x="360" y="430" as="sourcePoint" />
            <mxPoint x="460" y="330" as="targetPoint" />
          </mxGeometry>
        </mxCell>
        <mxCell id="grplmEt5WtFM2ZvYx5RY-60" value="" style="edgeStyle=entityRelationEdgeStyle;fontSize=12;html=1;endArrow=ERone;endFill=1;rounded=0;entryX=1;entryY=0.5;entryDx=0;entryDy=0;" edge="1" parent="1" source="grplmEt5WtFM2ZvYx5RY-58" target="grplmEt5WtFM2ZvYx5RY-15">
          <mxGeometry width="100" height="100" relative="1" as="geometry">
            <mxPoint x="360" y="430" as="sourcePoint" />
            <mxPoint x="460" y="330" as="targetPoint" />
          </mxGeometry>
        </mxCell>
        <mxCell id="grplmEt5WtFM2ZvYx5RY-63" value="trabalha" style="shape=rhombus;perimeter=rhombusPerimeter;whiteSpace=wrap;html=1;align=center;" vertex="1" parent="1">
          <mxGeometry x="294" y="630" width="120" height="60" as="geometry" />
        </mxCell>
        <mxCell id="grplmEt5WtFM2ZvYx5RY-64" value="" style="edgeStyle=entityRelationEdgeStyle;fontSize=12;html=1;endArrow=ERmany;rounded=0;entryX=0;entryY=0.5;entryDx=0;entryDy=0;exitX=1;exitY=0.5;exitDx=0;exitDy=0;" edge="1" parent="1" source="grplmEt5WtFM2ZvYx5RY-63" target="grplmEt5WtFM2ZvYx5RY-33">
          <mxGeometry width="100" height="100" relative="1" as="geometry">
            <mxPoint x="220" y="670" as="sourcePoint" />
            <mxPoint x="320" y="570" as="targetPoint" />
          </mxGeometry>
        </mxCell>
        <mxCell id="grplmEt5WtFM2ZvYx5RY-66" value="" style="edgeStyle=entityRelationEdgeStyle;fontSize=12;html=1;endArrow=ERone;endFill=1;rounded=0;exitX=0;exitY=0.5;exitDx=0;exitDy=0;entryX=1;entryY=0.75;entryDx=0;entryDy=0;" edge="1" parent="1" source="grplmEt5WtFM2ZvYx5RY-63" target="grplmEt5WtFM2ZvYx5RY-15">
          <mxGeometry width="100" height="100" relative="1" as="geometry">
            <mxPoint x="360" y="430" as="sourcePoint" />
            <mxPoint x="460" y="330" as="targetPoint" />
          </mxGeometry>
        </mxCell>
        <mxCell id="grplmEt5WtFM2ZvYx5RY-67" value="ministra" style="shape=rhombus;perimeter=rhombusPerimeter;whiteSpace=wrap;html=1;align=center;" vertex="1" parent="1">
          <mxGeometry x="660" y="500" width="120" height="60" as="geometry" />
        </mxCell>
        <mxCell id="grplmEt5WtFM2ZvYx5RY-68" value="data_admissao" style="ellipse;whiteSpace=wrap;html=1;align=center;fontStyle=0;" vertex="1" parent="1">
          <mxGeometry x="304" y="770" width="100" height="40" as="geometry" />
        </mxCell>
        <mxCell id="grplmEt5WtFM2ZvYx5RY-69" value="" style="endArrow=none;html=1;rounded=0;exitX=0.5;exitY=0;exitDx=0;exitDy=0;" edge="1" parent="1" source="grplmEt5WtFM2ZvYx5RY-68" target="grplmEt5WtFM2ZvYx5RY-63">
          <mxGeometry relative="1" as="geometry">
            <mxPoint x="330" y="440" as="sourcePoint" />
            <mxPoint x="490" y="440" as="targetPoint" />
          </mxGeometry>
        </mxCell>
        <mxCell id="grplmEt5WtFM2ZvYx5RY-70" value="" style="edgeStyle=entityRelationEdgeStyle;fontSize=12;html=1;endArrow=ERmany;rounded=0;exitX=1;exitY=0.5;exitDx=0;exitDy=0;" edge="1" parent="1" source="grplmEt5WtFM2ZvYx5RY-67" target="grplmEt5WtFM2ZvYx5RY-32">
          <mxGeometry width="100" height="100" relative="1" as="geometry">
            <mxPoint x="360" y="490" as="sourcePoint" />
            <mxPoint x="460" y="390" as="targetPoint" />
          </mxGeometry>
        </mxCell>
        <mxCell id="grplmEt5WtFM2ZvYx5RY-71" value="" style="edgeStyle=entityRelationEdgeStyle;fontSize=12;html=1;endArrow=ERone;endFill=1;rounded=0;entryX=0.5;entryY=0;entryDx=0;entryDy=0;exitX=0.5;exitY=1;exitDx=0;exitDy=0;" edge="1" parent="1" source="grplmEt5WtFM2ZvYx5RY-67" target="grplmEt5WtFM2ZvYx5RY-33">
          <mxGeometry width="100" height="100" relative="1" as="geometry">
            <mxPoint x="360" y="490" as="sourcePoint" />
            <mxPoint x="460" y="390" as="targetPoint" />
          </mxGeometry>
        </mxCell>
        <mxCell id="grplmEt5WtFM2ZvYx5RY-72" value="tem" style="shape=rhombus;perimeter=rhombusPerimeter;whiteSpace=wrap;html=1;align=center;" vertex="1" parent="1">
          <mxGeometry x="650" y="100" width="120" height="60" as="geometry" />
        </mxCell>
        <mxCell id="grplmEt5WtFM2ZvYx5RY-73" value="" style="edgeStyle=entityRelationEdgeStyle;fontSize=12;html=1;endArrow=ERmany;rounded=0;exitX=1;exitY=0.5;exitDx=0;exitDy=0;" edge="1" parent="1" source="grplmEt5WtFM2ZvYx5RY-72" target="grplmEt5WtFM2ZvYx5RY-32">
          <mxGeometry width="100" height="100" relative="1" as="geometry">
            <mxPoint x="360" y="490" as="sourcePoint" />
            <mxPoint x="460" y="390" as="targetPoint" />
            <Array as="points">
              <mxPoint x="740" y="390" />
              <mxPoint x="760" y="260" />
            </Array>
          </mxGeometry>
        </mxCell>
        <mxCell id="grplmEt5WtFM2ZvYx5RY-74" value="" style="edgeStyle=entityRelationEdgeStyle;fontSize=12;html=1;endArrow=ERmany;rounded=0;entryX=1;entryY=0.5;entryDx=0;entryDy=0;" edge="1" parent="1" source="grplmEt5WtFM2ZvYx5RY-72" target="grplmEt5WtFM2ZvYx5RY-25">
          <mxGeometry width="100" height="100" relative="1" as="geometry">
            <mxPoint x="360" y="490" as="sourcePoint" />
            <mxPoint x="460" y="390" as="targetPoint" />
          </mxGeometry>
        </mxCell>
        <mxCell id="grplmEt5WtFM2ZvYx5RY-75" value="data_inicio" style="ellipse;whiteSpace=wrap;html=1;align=center;" vertex="1" parent="1">
          <mxGeometry x="730" y="20" width="100" height="40" as="geometry" />
        </mxCell>
        <mxCell id="grplmEt5WtFM2ZvYx5RY-76" value="" style="endArrow=none;html=1;rounded=0;exitX=0.5;exitY=1;exitDx=0;exitDy=0;entryX=0.5;entryY=0;entryDx=0;entryDy=0;" edge="1" parent="1" source="grplmEt5WtFM2ZvYx5RY-75" target="grplmEt5WtFM2ZvYx5RY-72">
          <mxGeometry relative="1" as="geometry">
            <mxPoint x="330" y="440" as="sourcePoint" />
            <mxPoint x="490" y="440" as="targetPoint" />
          </mxGeometry>
        </mxCell>
        <mxCell id="grplmEt5WtFM2ZvYx5RY-77" value="data_termino" style="ellipse;whiteSpace=wrap;html=1;align=center;" vertex="1" parent="1">
          <mxGeometry x="600" y="20" width="100" height="40" as="geometry" />
        </mxCell>
        <mxCell id="grplmEt5WtFM2ZvYx5RY-78" value="" style="endArrow=none;html=1;rounded=0;exitX=0.5;exitY=1;exitDx=0;exitDy=0;entryX=0.5;entryY=0;entryDx=0;entryDy=0;" edge="1" parent="1" source="grplmEt5WtFM2ZvYx5RY-77" target="grplmEt5WtFM2ZvYx5RY-72">
          <mxGeometry relative="1" as="geometry">
            <mxPoint x="330" y="440" as="sourcePoint" />
            <mxPoint x="490" y="440" as="targetPoint" />
          </mxGeometry>
        </mxCell>
      </root>
    </mxGraphModel>
  </diagram>
</mxfile>
